# Blender 4.4.3
# www.blender.org
mtllib Mug.mtl
o Cylinder
v 1.000000 0.000000 0.000000
v 0.818118 0.000000 2.000000
v 0.980785 -0.195090 0.000000
v 0.802399 -0.159607 2.000000
v 0.923880 -0.382683 0.000000
v 0.755843 -0.313080 2.000000
v 0.831470 -0.555570 0.000000
v 0.680241 -0.454522 2.000000
v 0.707107 -0.707107 0.000000
v 0.578497 -0.578497 2.000000
v 0.555570 -0.831470 0.000000
v 0.454522 -0.680241 2.000000
v 0.382683 -0.923880 0.000000
v 0.313080 -0.755843 2.000000
v 0.195090 -0.980785 0.000000
v 0.159607 -0.802399 2.000000
v 0.000000 -1.000000 0.000000
v 0.000000 -0.818118 2.000000
v -0.195090 -0.980785 0.000000
v -0.159607 -0.802399 2.000000
v -0.382683 -0.923880 0.000000
v -0.313080 -0.755843 2.000000
v -0.555570 -0.831470 0.000000
v -0.454522 -0.680241 2.000000
v -0.707107 -0.707107 0.000000
v -0.578497 -0.578497 2.000000
v -0.831470 -0.555570 0.000000
v -0.680241 -0.454522 2.000000
v -0.923880 -0.382683 0.000000
v -0.755843 -0.313080 2.000000
v -0.980785 -0.195090 0.000000
v -0.802399 -0.159607 2.000000
v -1.000000 0.000000 0.000000
v -0.818118 0.000000 2.000000
v -0.980785 0.195090 0.000000
v -0.802399 0.159607 2.000000
v -0.923880 0.382683 0.000000
v -0.755843 0.313080 2.000000
v -0.831470 0.555570 0.000000
v -0.680241 0.454522 2.000000
v -0.707107 0.707107 0.000000
v -0.578497 0.578497 2.000000
v -0.555570 0.831470 0.000000
v -0.454522 0.680241 2.000000
v -0.382683 0.923880 0.000000
v -0.313080 0.755843 2.000000
v -0.195090 0.980785 0.000000
v -0.159607 0.802399 2.000000
v 0.000000 1.000000 0.000000
v 0.000000 0.818118 2.000000
v 0.195090 0.980785 0.000000
v 0.159607 0.802399 2.000000
v 0.382683 0.923880 0.000000
v 0.313080 0.755843 2.000000
v 0.555570 0.831470 0.000000
v 0.454522 0.680241 2.000000
v 0.707107 0.707107 0.000000
v 0.578497 0.578497 2.000000
v 0.831470 0.555570 0.000000
v 0.680241 0.454522 2.000000
v 0.923880 0.382683 0.000000
v 0.755843 0.313080 2.000000
v 0.980785 0.195090 0.000000
v 0.802399 0.159607 2.000000
v 0.195090 -1.632879 0.356293
v -0.195090 -0.980785 0.356293
v -0.195090 -0.980785 1.356293
v 0.195090 -1.632879 0.606293
v -0.195090 -1.632879 1.356293
v -0.195090 -0.980785 0.606293
v -0.195090 -0.980785 1.606293
v -0.195090 -1.632879 1.606293
v 0.195090 -0.980785 0.356293
v 0.195090 -0.980785 1.356293
v -0.195090 -1.632879 0.356293
v -0.195090 -1.632879 0.606293
v 0.195090 -0.980785 0.606293
v 0.195090 -0.980785 1.606293
v 0.000000 -1.000000 1.606293
v 0.000000 -1.000000 1.356293
v 0.000000 -1.000000 0.606293
v 0.000000 -1.000000 0.356293
v 0.195090 -1.632879 1.606293
v 0.195090 -1.632879 1.356293
v 0.000000 -1.652094 1.606293
v 0.000000 -1.652094 1.356293
v 0.000000 -1.652094 0.606293
v 0.000000 -1.652094 0.356293
v -0.195090 -1.412609 1.356293
v 0.195090 -1.412609 1.356293
v -0.195090 -1.412609 0.606293
v 0.195090 -1.412609 0.606293
v 0.000000 -1.412609 0.606293
v 0.000000 -1.412609 1.356293
v 0.980785 -0.195090 2.000000
v 1.000000 0.000000 2.000000
v 0.923880 -0.382683 2.000000
v 0.831470 -0.555570 2.000000
v 0.707107 -0.707107 2.000000
v 0.555570 -0.831470 2.000000
v 0.382683 -0.923880 2.000000
v 0.195090 -0.980785 2.000000
v 0.000000 -1.000000 2.000000
v -0.195090 -0.980785 2.000000
v -0.382683 -0.923880 2.000000
v -0.555570 -0.831470 2.000000
v -0.707107 -0.707107 2.000000
v -0.831470 -0.555570 2.000000
v -0.923880 -0.382683 2.000000
v -0.980785 -0.195090 2.000000
v -1.000000 0.000000 2.000000
v -0.980785 0.195090 2.000000
v -0.923880 0.382683 2.000000
v -0.831470 0.555570 2.000000
v -0.707107 0.707107 2.000000
v -0.555570 0.831470 2.000000
v -0.382683 0.923880 2.000000
v -0.195090 0.980785 2.000000
v 0.000000 1.000000 2.000000
v 0.195090 0.980785 2.000000
v 0.382683 0.923880 2.000000
v 0.555570 0.831470 2.000000
v 0.707107 0.707107 2.000000
v 0.831470 0.555570 2.000000
v 0.923880 0.382683 2.000000
v 0.980785 0.195090 2.000000
v 0.818118 0.000000 0.192368
v 0.802399 -0.159607 0.192368
v 0.755843 -0.313080 0.192368
v 0.680241 -0.454522 0.192368
v 0.578497 -0.578497 0.192368
v 0.454522 -0.680241 0.192368
v 0.313080 -0.755843 0.192368
v 0.159607 -0.802399 0.192368
v 0.000000 -0.818118 0.192368
v -0.159607 -0.802399 0.192368
v -0.313080 -0.755843 0.192368
v -0.454522 -0.680241 0.192368
v -0.578497 -0.578497 0.192368
v -0.680241 -0.454522 0.192368
v -0.755843 -0.313080 0.192368
v -0.802399 -0.159607 0.192368
v -0.818118 0.000000 0.192368
v -0.802399 0.159607 0.192368
v -0.755843 0.313080 0.192368
v -0.680241 0.454522 0.192368
v -0.578497 0.578497 0.192368
v -0.454522 0.680241 0.192368
v -0.313080 0.755843 0.192368
v -0.159607 0.802399 0.192368
v 0.000000 0.818118 0.192368
v 0.159607 0.802399 0.192368
v 0.313080 0.755843 0.192368
v 0.454522 0.680241 0.192368
v 0.578497 0.578497 0.192368
v 0.680241 0.454522 0.192368
v 0.755843 0.313080 0.192368
v 0.802399 0.159607 0.192368
vn 0.9952 -0.0980 -0.0000
vn 0.9569 -0.2903 -0.0000
vn 0.8819 -0.4714 -0.0000
vn 0.7730 -0.6344 -0.0000
vn 0.6344 -0.7730 -0.0000
vn 0.4714 -0.8819 -0.0000
vn 0.2903 -0.9569 -0.0000
vn 0.0980 -0.9952 -0.0000
vn -0.0980 -0.9952 -0.0000
vn -0.2903 -0.9569 -0.0000
vn -0.4714 -0.8819 -0.0000
vn -0.6344 -0.7730 -0.0000
vn -0.7730 -0.6344 -0.0000
vn -0.8819 -0.4714 -0.0000
vn -0.9569 -0.2903 -0.0000
vn -0.9952 -0.0980 -0.0000
vn -0.9952 0.0980 -0.0000
vn -0.9569 0.2903 -0.0000
vn -0.8819 0.4714 -0.0000
vn -0.7730 0.6344 -0.0000
vn -0.6344 0.7730 -0.0000
vn -0.4714 0.8819 -0.0000
vn -0.2903 0.9569 -0.0000
vn -0.0980 0.9952 -0.0000
vn 0.0980 0.9952 -0.0000
vn 0.2903 0.9569 -0.0000
vn 0.4714 0.8819 -0.0000
vn 0.6344 0.7730 -0.0000
vn 0.7730 0.6344 -0.0000
vn 0.8819 0.4714 -0.0000
vn 0.9569 0.2903 -0.0000
vn 0.9952 0.0980 -0.0000
vn -0.0000 -0.0000 -1.0000
vn 1.0000 -0.0000 -0.0000
vn -1.0000 -0.0000 -0.0000
vn -0.0000 -0.0000 1.0000
vn -0.0000 1.0000 -0.0000
vt 1.000000 0.500000
vt 1.000000 1.000000
vt 0.968750 1.000000
vt 0.968750 0.500000
vt 0.937500 1.000000
vt 0.937500 0.500000
vt 0.906250 1.000000
vt 0.906250 0.500000
vt 0.875000 1.000000
vt 0.875000 0.500000
vt 0.843750 1.000000
vt 0.843750 0.500000
vt 0.812500 1.000000
vt 0.812500 0.500000
vt 0.781250 1.000000
vt 0.781250 0.937500
vt 0.781250 0.875000
vt 0.781250 0.687500
vt 0.781250 0.625000
vt 0.781250 0.500000
vt 0.750000 0.937500
vt 0.750000 1.000000
vt 0.718750 1.000000
vt 0.718750 0.937500
vt 0.718750 0.500000
vt 0.718750 0.625000
vt 0.718750 0.687500
vt 0.718750 0.875000
vt 0.687500 1.000000
vt 0.687500 0.500000
vt 0.656250 1.000000
vt 0.656250 0.500000
vt 0.625000 1.000000
vt 0.625000 0.500000
vt 0.593750 1.000000
vt 0.593750 0.500000
vt 0.562500 1.000000
vt 0.562500 0.500000
vt 0.531250 1.000000
vt 0.531250 0.500000
vt 0.500000 1.000000
vt 0.500000 0.500000
vt 0.468750 1.000000
vt 0.468750 0.500000
vt 0.437500 1.000000
vt 0.437500 0.500000
vt 0.406250 1.000000
vt 0.406250 0.500000
vt 0.375000 1.000000
vt 0.375000 0.500000
vt 0.343750 1.000000
vt 0.343750 0.500000
vt 0.312500 1.000000
vt 0.312500 0.500000
vt 0.281250 1.000000
vt 0.281250 0.500000
vt 0.250000 1.000000
vt 0.250000 0.500000
vt 0.218750 1.000000
vt 0.218750 0.500000
vt 0.187500 1.000000
vt 0.187500 0.500000
vt 0.156250 1.000000
vt 0.156250 0.500000
vt 0.125000 1.000000
vt 0.125000 0.500000
vt 0.093750 1.000000
vt 0.093750 0.500000
vt 0.062500 1.000000
vt 0.062500 0.500000
vt 0.325139 0.068598
vt 0.359085 0.086742
vt 0.031250 1.000000
vt 0.031250 0.500000
vt 0.000000 1.000000
vt 0.000000 0.500000
vt 0.750000 0.490000
vt 0.796822 0.485388
vt 0.841844 0.471731
vt 0.883337 0.449553
vt 0.919706 0.419706
vt 0.949553 0.383337
vt 0.971731 0.341844
vt 0.985388 0.296822
vt 0.990000 0.250000
vt 0.985388 0.203178
vt 0.971731 0.158156
vt 0.949553 0.116663
vt 0.919706 0.080294
vt 0.883337 0.050447
vt 0.841844 0.028269
vt 0.796822 0.014612
vt 0.750000 0.010000
vt 0.703178 0.014612
vt 0.658156 0.028269
vt 0.616663 0.050447
vt 0.580294 0.080294
vt 0.550447 0.116663
vt 0.528269 0.158156
vt 0.514612 0.203178
vt 0.510000 0.250000
vt 0.514612 0.296822
vt 0.528269 0.341844
vt 0.550447 0.383337
vt 0.580294 0.419706
vt 0.616663 0.449553
vt 0.658156 0.471731
vt 0.703178 0.485388
vt 0.750000 0.625000
vt 0.750000 0.687500
vt 0.750000 0.875000
vt 0.750000 0.500000
vt 0.250000 0.446348
vt 0.288306 0.442576
vt 0.296822 0.485388
vt 0.250000 0.490000
vt 0.325139 0.431402
vt 0.341844 0.471731
vt 0.359085 0.413258
vt 0.383337 0.449553
vt 0.388839 0.388839
vt 0.419706 0.419706
vt 0.413258 0.359085
vt 0.449553 0.383337
vt 0.431402 0.325139
vt 0.471731 0.341844
vt 0.442576 0.288306
vt 0.485388 0.296822
vt 0.446348 0.250000
vt 0.490000 0.250000
vt 0.442576 0.211694
vt 0.485388 0.203178
vt 0.431402 0.174861
vt 0.471731 0.158156
vt 0.413258 0.140915
vt 0.449553 0.116663
vt 0.388839 0.111161
vt 0.419706 0.080294
vt 0.383337 0.050447
vt 0.341844 0.028269
vt 0.288306 0.057424
vt 0.296822 0.014612
vt 0.250000 0.053652
vt 0.250000 0.010000
vt 0.211694 0.057424
vt 0.203178 0.014612
vt 0.174861 0.068598
vt 0.158156 0.028269
vt 0.140915 0.086742
vt 0.116663 0.050447
vt 0.111161 0.111161
vt 0.080294 0.080294
vt 0.086742 0.140915
vt 0.050447 0.116663
vt 0.068598 0.174861
vt 0.028269 0.158156
vt 0.057424 0.211694
vt 0.014612 0.203178
vt 0.053652 0.250000
vt 0.010000 0.250000
vt 0.057424 0.288306
vt 0.014612 0.296822
vt 0.068598 0.325139
vt 0.028269 0.341844
vt 0.086742 0.359085
vt 0.050447 0.383337
vt 0.111161 0.388839
vt 0.080294 0.419706
vt 0.140915 0.413258
vt 0.116663 0.449553
vt 0.174861 0.431402
vt 0.158156 0.471731
vt 0.211694 0.442576
vt 0.203178 0.485388
s 0
f 1/1/1 96/2/1 95/3/1 3/4/1
f 3/4/2 95/3/2 97/5/2 5/6/2
f 5/6/3 97/5/3 98/7/3 7/8/3
f 7/8/4 98/7/4 99/9/4 9/10/4
f 9/10/5 99/9/5 100/11/5 11/12/5
f 11/12/6 100/11/6 101/13/6 13/14/6
f 13/14/7 101/13/7 102/15/7 78/16/7 74/17/7 77/18/7 73/19/7 15/20/7
f 79/21/8 78/16/8 102/15/8 103/22/8
f 79/21/9 103/22/9 104/23/9 71/24/9
f 19/25/10 66/26/10 70/27/10 67/28/10 71/24/10 104/23/10 105/29/10 21/30/10
f 21/30/11 105/29/11 106/31/11 23/32/11
f 23/32/12 106/31/12 107/33/12 25/34/12
f 25/34/13 107/33/13 108/35/13 27/36/13
f 27/36/14 108/35/14 109/37/14 29/38/14
f 29/38/15 109/37/15 110/39/15 31/40/15
f 31/40/16 110/39/16 111/41/16 33/42/16
f 33/42/17 111/41/17 112/43/17 35/44/17
f 35/44/18 112/43/18 113/45/18 37/46/18
f 37/46/19 113/45/19 114/47/19 39/48/19
f 39/48/20 114/47/20 115/49/20 41/50/20
f 41/50/21 115/49/21 116/51/21 43/52/21
f 43/52/22 116/51/22 117/53/22 45/54/22
f 45/54/23 117/53/23 118/55/23 47/56/23
f 47/56/24 118/55/24 119/57/24 49/58/24
f 49/58/25 119/57/25 120/59/25 51/60/25
f 51/60/26 120/59/26 121/61/26 53/62/26
f 53/62/27 121/61/27 122/63/27 55/64/27
f 55/64/28 122/63/28 123/65/28 57/66/28
f 57/66/29 123/65/29 124/67/29 59/68/29
f 59/68/30 124/67/30 125/69/30 61/70/30
f 30/71/30 28/72/30 140/72/30 141/71/30
f 61/70/31 125/69/31 126/73/31 63/74/31
f 63/74/32 126/73/32 96/75/32 1/76/32
f 1/77/33 3/78/33 5/79/33 7/80/33 9/81/33 11/82/33 13/83/33 15/84/33 17/85/33 19/86/33 21/87/33 23/88/33 25/89/33 27/90/33 29/91/33 31/92/33 33/93/33 35/94/33 37/95/33 39/96/33 41/97/33 43/98/33 45/99/33 47/100/33 49/101/33 51/102/33 53/103/33 55/104/33 57/105/33 59/106/33 61/107/33 63/108/33
f 66/26/33 82/109/33 88/109/33 75/26/33
f 90/17/34 84/17/34 68/17/34 92/17/34
f 81/110/8 77/18/8 74/17/8 80/111/8
f 81/110/9 80/111/9 67/28/9 70/27/9
f 70/27/35 66/26/35 75/26/35 76/27/35 91/27/35
f 91/28/33 93/111/33 87/111/33 76/28/33
f 15/20/8 73/19/8 82/109/8 17/112/8
f 17/112/9 82/109/9 66/26/9 19/25/9
f 86/111/8 84/17/8 83/16/8 85/21/8
f 86/111/9 85/21/9 72/24/9 69/28/9
f 88/109/8 65/19/8 68/18/8 87/110/8
f 88/109/9 87/110/9 76/27/9 75/26/9
f 73/19/34 77/18/34 92/18/34 68/18/34 65/19/34
f 78/16/36 79/21/36 85/21/36 83/16/36
f 93/111/33 92/17/33 68/17/33 87/111/33
f 71/24/35 67/28/35 89/28/35 69/28/35 72/24/35
f 84/17/8 86/111/8 87/111/8 68/17/8
f 74/17/34 78/16/34 83/16/34 84/17/34 90/17/34
f 79/21/36 71/24/36 72/24/36 85/21/36
f 82/109/33 73/19/33 65/19/33 88/109/33
f 77/18/36 81/110/36 93/110/36 92/18/36
f 81/110/36 70/27/36 91/27/36 93/110/36
f 80/111/33 74/17/33 90/17/33 94/111/33
f 67/28/33 80/111/33 94/111/33 89/28/33
f 69/28/35 89/28/35 91/28/35 76/28/35
f 89/28/37 94/111/37 93/111/37 91/28/37
f 86/111/9 69/28/9 76/28/9 87/111/9
f 94/111/37 90/17/37 92/17/37 93/111/37
f 2/113/36 4/114/36 95/115/36 96/116/36
f 4/114/36 6/117/36 97/118/36 95/115/36
f 6/117/36 8/119/36 98/120/36 97/118/36
f 8/119/36 10/121/36 99/122/36 98/120/36
f 10/121/36 12/123/36 100/124/36 99/122/36
f 12/123/36 14/125/36 101/126/36 100/124/36
f 14/125/36 16/127/36 102/128/36 101/126/36
f 16/127/36 18/129/36 103/130/36 102/128/36
f 18/129/36 20/131/36 104/132/36 103/130/36
f 20/131/36 22/133/36 105/134/36 104/132/36
f 22/133/36 24/135/36 106/136/36 105/134/36
f 24/135/36 26/137/36 107/138/36 106/136/36
f 26/137/36 28/72/36 108/139/36 107/138/36
f 28/72/36 30/71/36 109/140/36 108/139/36
f 30/71/36 32/141/36 110/142/36 109/140/36
f 32/141/36 34/143/36 111/144/36 110/142/36
f 34/143/36 36/145/36 112/146/36 111/144/36
f 36/145/36 38/147/36 113/148/36 112/146/36
f 38/147/36 40/149/36 114/150/36 113/148/36
f 40/149/36 42/151/36 115/152/36 114/150/36
f 42/151/36 44/153/36 116/154/36 115/152/36
f 44/153/36 46/155/36 117/156/36 116/154/36
f 46/155/36 48/157/36 118/158/36 117/156/36
f 48/157/36 50/159/36 119/160/36 118/158/36
f 50/159/36 52/161/36 120/162/36 119/160/36
f 52/161/36 54/163/36 121/164/36 120/162/36
f 54/163/36 56/165/36 122/166/36 121/164/36
f 56/165/36 58/167/36 123/168/36 122/166/36
f 58/167/36 60/169/36 124/170/36 123/168/36
f 60/169/36 62/171/36 125/172/36 124/170/36
f 62/171/36 64/173/36 126/174/36 125/172/36
f 64/173/36 2/113/36 96/116/36 126/174/36
f 128/114/36 127/113/36 158/173/36 157/171/36 156/169/36 155/167/36 154/165/36 153/163/36 152/161/36 151/159/36 150/157/36 149/155/36 148/153/36 147/151/36 146/149/36 145/147/36 144/145/36 143/143/36 142/141/36 141/71/36 140/72/36 139/137/36 138/135/36 137/133/36 136/131/36 135/129/36 134/127/36 133/125/36 132/123/36 131/121/36 130/119/36 129/117/36
f 4/114/17 2/113/17 127/113/17 128/114/17
f 58/167/12 56/165/12 154/165/12 155/167/12
f 32/141/31 30/71/31 141/71/31 142/141/31
f 6/117/18 4/114/18 128/114/18 129/117/18
f 60/169/13 58/167/13 155/167/13 156/169/13
f 34/143/32 32/141/32 142/141/32 143/143/32
f 8/119/19 6/117/19 129/117/19 130/119/19
f 62/171/14 60/169/14 156/169/14 157/171/14
f 36/145/1 34/143/1 143/143/1 144/145/1
f 10/121/20 8/119/20 130/119/20 131/121/20
f 64/173/15 62/171/15 157/171/15 158/173/15
f 38/147/2 36/145/2 144/145/2 145/147/2
f 12/123/21 10/121/21 131/121/21 132/123/21
f 2/113/16 64/173/16 158/173/16 127/113/16
f 40/149/3 38/147/3 145/147/3 146/149/3
f 14/125/22 12/123/22 132/123/22 133/125/22
f 42/151/4 40/149/4 146/149/4 147/151/4
f 16/127/23 14/125/23 133/125/23 134/127/23
f 44/153/5 42/151/5 147/151/5 148/153/5
f 18/129/24 16/127/24 134/127/24 135/129/24
f 46/155/6 44/153/6 148/153/6 149/155/6
f 20/131/25 18/129/25 135/129/25 136/131/25
f 48/157/7 46/155/7 149/155/7 150/157/7
f 22/133/26 20/131/26 136/131/26 137/133/26
f 50/159/8 48/157/8 150/157/8 151/159/8
f 24/135/27 22/133/27 137/133/27 138/135/27
f 52/161/9 50/159/9 151/159/9 152/161/9
f 26/137/28 24/135/28 138/135/28 139/137/28
f 54/163/10 52/161/10 152/161/10 153/163/10
f 28/72/29 26/137/29 139/137/29 140/72/29
f 56/165/11 54/163/11 153/163/11 154/165/11
