# Blender 4.4.3
# www.blender.org
mtllib TV.mtl
o Cube
v 1.350000 1.000000 1.000000
v 1.350000 1.000000 0.700000
v 1.350000 -1.000000 1.000000
v 1.350000 -1.000000 0.700000
v -1.350000 1.000000 1.000000
v -1.350000 1.000000 0.700000
v -1.350000 -1.000000 1.000000
v -1.350000 -1.000000 0.700000
v -1.350000 0.666667 0.700000
v -1.350000 -0.666667 0.700000
v 1.350000 0.666667 1.000000
v 1.350000 -0.666667 1.000000
v -1.350000 -0.666667 1.000000
v -1.350000 0.666667 1.000000
v 1.350000 -0.666667 0.700000
v 1.350000 0.666667 0.700000
v 1.016667 1.000000 0.700000
v -1.016667 1.000000 0.700000
v 1.016667 -1.000000 1.000000
v -1.016667 -1.000000 1.000000
v -1.016667 -1.000000 0.700000
v 1.016667 -1.000000 0.700000
v -1.016667 1.000000 1.000000
v 1.016667 1.000000 1.000000
v 1.016667 0.666667 0.700000
v -1.016667 0.666667 0.700000
v 1.016667 -0.666667 0.700000
v -1.016667 -0.666667 0.700000
v -0.959385 0.223023 1.000000
v 0.959385 0.223023 1.000000
v -0.959385 -0.223023 1.000000
v 0.959385 -0.223023 1.000000
v 1.350000 -1.000000 0.000000
v 1.350000 -0.666667 0.000000
v 1.016667 -1.000000 0.000000
v 1.016667 -0.666667 0.000000
v 1.350000 1.000000 0.000000
v 1.350000 0.666667 0.000000
v 1.016667 1.000000 0.000000
v 1.016667 0.666667 0.000000
v -1.350000 -0.666667 0.000000
v -1.350000 -1.000000 0.000000
v -1.016667 1.000000 0.000000
v -1.350000 1.000000 0.000000
v -1.350000 0.666667 0.000000
v -1.016667 0.666667 0.000000
v -1.016667 -0.666667 0.000000
v -1.016667 -1.000000 0.000000
v -1.016667 0.666667 1.000000
v 1.016667 0.666667 1.000000
v -1.016667 -0.666667 1.000000
v 1.016667 -0.666667 1.000000
v -0.805045 0.150396 1.139389
v 0.805045 0.150396 1.139389
v -0.820392 -0.108071 1.124041
v 0.820392 -0.108071 1.124041
v -0.959385 0.223023 1.055634
v 0.959385 0.223023 1.055634
v -0.959385 -0.223023 1.055634
v 0.959385 -0.223023 1.055634
v -0.805045 0.150396 2.560611
v 0.805045 0.150396 2.560611
v -0.820392 -0.108071 2.575959
v 0.820392 -0.108071 2.575959
v -0.844433 0.108071 1.100000
v 0.844433 0.108071 1.100000
v -0.844433 0.108071 2.600000
v 0.844433 0.108071 2.600000
v -0.844433 -0.108071 1.100000
v 0.844433 -0.108071 1.100000
v -0.844433 -0.108071 2.600000
v 0.844433 -0.108071 2.600000
v -0.820392 -0.077811 1.124041
v 0.820392 -0.077811 1.124041
v -0.820392 -0.077811 2.575959
v 0.820392 -0.077811 2.575959
vn -0.0000 -0.0000 1.0000
vn -0.0000 -1.0000 -0.0000
vn -1.0000 -0.0000 -0.0000
vn 1.0000 -0.0000 -0.0000
vn -0.0000 1.0000 -0.0000
vn -0.0000 -0.0000 -1.0000
vn -0.0000 0.3601 0.9329
vn -0.0000 -0.3601 0.9329
vn 0.3601 -0.0000 0.9329
vn -0.3601 -0.0000 0.9329
vn -0.0000 0.6813 -0.7320
vn -0.0000 0.6813 0.7320
vn -0.7320 0.6813 -0.0000
vn 0.7320 0.6813 -0.0000
vt 0.875000 0.708333
vt 0.833333 0.750000
vt 0.833333 0.708333
vt 0.625000 0.958333
vt 0.375000 1.000000
vt 0.375000 0.958333
vt 0.625000 0.208333
vt 0.375000 0.250000
vt 0.375000 0.208333
vt 0.333333 0.708333
vt 0.333333 0.750000
vt 0.625000 0.708333
vt 0.375000 0.750000
vt 0.375000 0.708333
vt 0.625000 0.458333
vt 0.375000 0.500000
vt 0.375000 0.458333
vt 0.625000 0.500000
vt 0.375000 0.541667
vt 0.625000 0.541667
vt 0.333333 0.541667
vt 0.625000 0.000000
vt 0.375000 0.041667
vt 0.375000 0.000000
vt 0.625000 0.041667
vt 0.875000 0.500000
vt 0.833333 0.541667
vt 0.833333 0.500000
vt 0.875000 0.541667
vt 0.666667 0.541667
vt 0.706300 0.611025
vt 0.706300 0.638975
vt 0.666667 0.500000
vt 0.166667 0.541667
vt 0.125000 0.708333
vt 0.125000 0.541667
vt 0.166667 0.708333
vt 0.333333 0.500000
vt 0.166667 0.500000
vt 0.625000 0.250000
vt 0.375000 0.291667
vt 0.625000 0.291667
vt 0.166667 0.750000
vt 0.625000 0.750000
vt 0.375000 0.791667
vt 0.625000 0.791667
vt 0.666667 0.708333
vt 0.666667 0.750000
vt 0.125000 0.500000
vt 0.125000 0.750000
vt 0.793700 0.611025
vt 0.793700 0.638975
vt 0.786670 0.618228
vt 0.713330 0.618228
vt 0.711536 0.618228
vt 0.788464 0.618228
vt 0.788464 0.631772
vt 0.711536 0.631772
vt 0.787369 0.631772
vt 0.712631 0.631772
vt 0.786670 0.618228
vt 0.712631 0.631772
vt 0.875000 0.750000
vt 0.625000 1.000000
s 0
usemtl Material
f 13/1/1 20/2/1 51/3/1
f 20/4/2 8/5/2 21/6/2
f 14/7/3 6/8/3 9/9/3
f 27/10/3 35/11/3 22/11/3
f 12/12/4 4/13/4 15/14/4
f 24/15/5 2/16/5 17/17/5
f 1/18/4 16/19/4 2/16/4
f 11/20/4 15/14/4 16/19/4
f 2/16/5 39/17/5 17/17/5
f 16/19/6 27/10/6 25/21/6
f 7/22/3 10/23/3 8/24/3
f 13/25/3 9/9/3 10/23/3
f 5/26/1 49/27/1 23/28/1
f 14/29/1 51/3/1 49/27/1
f 50/30/1 12/12/1 11/20/1
f 30/31/4 60/32/4 32/32/4
f 24/33/1 11/20/1 1/18/1
f 23/28/1 50/30/1 24/33/1
f 26/34/6 10/35/6 9/36/6
f 25/21/6 28/37/6 26/34/6
f 10/23/3 42/24/3 8/24/3
f 17/38/6 26/34/6 18/39/6
f 5/40/5 18/41/5 6/8/5
f 23/42/5 17/17/5 18/41/5
f 26/34/4 43/39/4 18/39/4
f 27/10/6 21/43/6 28/37/6
f 3/44/2 22/45/2 4/13/2
f 19/46/2 21/6/2 22/45/2
f 52/47/1 3/44/1 12/12/1
f 51/3/1 19/48/1 52/47/1
f 34/14/6 35/11/6 36/10/6
f 4/13/4 34/14/4 15/14/4
f 15/14/5 36/10/5 27/10/5
f 22/45/2 33/13/2 4/13/2
f 37/16/6 40/21/6 39/38/6
f 16/19/4 37/16/4 2/16/4
f 17/38/3 40/21/3 25/21/3
f 25/21/2 38/19/2 16/19/2
f 43/39/6 45/36/6 44/49/6
f 47/37/6 42/50/6 41/35/6
f 9/36/2 46/34/2 26/34/2
f 28/37/5 41/35/5 10/35/5
f 18/41/5 44/8/5 6/8/5
f 6/8/3 45/9/3 9/9/3
f 21/43/4 47/37/4 28/37/4
f 8/5/2 48/6/2 21/6/2
f 30/31/1 49/27/1 29/51/1
f 31/52/1 52/47/1 32/32/1
f 32/32/1 50/30/1 30/31/1
f 29/51/1 51/3/1 31/52/1
f 53/53/5 62/54/5 54/54/5
f 29/51/5 58/31/5 30/31/5
f 31/52/3 57/51/3 29/51/3
f 32/32/2 59/52/2 31/52/2
f 66/55/7 57/51/7 65/56/7
f 69/57/8 60/32/8 70/58/8
f 70/58/9 58/31/9 66/55/9
f 65/56/10 59/52/10 69/57/10
f 67/56/1 72/58/1 68/55/1
f 69/57/3 67/56/3 65/56/3
f 63/59/6 76/60/6 64/60/6
f 66/55/4 72/58/4 70/58/4
f 54/54/11 65/56/11 53/53/11
f 61/61/12 68/55/12 62/54/12
f 53/53/13 67/56/13 61/61/13
f 62/54/14 66/55/14 54/54/14
f 55/59/2 70/58/2 56/62/2
f 64/60/2 71/57/2 63/59/2
f 63/59/2 69/57/2 55/59/2
f 56/62/2 72/58/2 64/60/2
f 74/62/2 75/59/2 73/59/2
f 55/59/4 75/59/4 63/59/4
f 56/62/1 73/59/1 55/59/1
f 64/60/3 74/62/3 56/62/3
f 13/1/1 7/63/1 20/2/1
f 20/4/2 7/64/2 8/5/2
f 14/7/3 5/40/3 6/8/3
f 27/10/3 36/10/3 35/11/3
f 12/12/4 3/44/4 4/13/4
f 24/15/5 1/18/5 2/16/5
f 1/18/4 11/20/4 16/19/4
f 11/20/4 12/12/4 15/14/4
f 2/16/5 37/16/5 39/17/5
f 16/19/6 15/14/6 27/10/6
f 7/22/3 13/25/3 10/23/3
f 13/25/3 14/7/3 9/9/3
f 5/26/1 14/29/1 49/27/1
f 14/29/1 13/1/1 51/3/1
f 50/30/1 52/47/1 12/12/1
f 30/31/4 58/31/4 60/32/4
f 24/33/1 50/30/1 11/20/1
f 23/28/1 49/27/1 50/30/1
f 26/34/6 28/37/6 10/35/6
f 25/21/6 27/10/6 28/37/6
f 10/23/3 41/23/3 42/24/3
f 17/38/6 25/21/6 26/34/6
f 5/40/5 23/42/5 18/41/5
f 23/42/5 24/15/5 17/17/5
f 26/34/4 46/34/4 43/39/4
f 27/10/6 22/11/6 21/43/6
f 3/44/2 19/46/2 22/45/2
f 19/46/2 20/4/2 21/6/2
f 52/47/1 19/48/1 3/44/1
f 51/3/1 20/2/1 19/48/1
f 34/14/6 33/13/6 35/11/6
f 4/13/4 33/13/4 34/14/4
f 15/14/5 34/14/5 36/10/5
f 22/45/2 35/45/2 33/13/2
f 37/16/6 38/19/6 40/21/6
f 16/19/4 38/19/4 37/16/4
f 17/38/3 39/38/3 40/21/3
f 25/21/2 40/21/2 38/19/2
f 43/39/6 46/34/6 45/36/6
f 47/37/6 48/43/6 42/50/6
f 9/36/2 45/36/2 46/34/2
f 28/37/5 47/37/5 41/35/5
f 18/41/5 43/41/5 44/8/5
f 6/8/3 44/8/3 45/9/3
f 21/43/4 48/43/4 47/37/4
f 8/5/2 42/5/2 48/6/2
f 30/31/1 50/30/1 49/27/1
f 31/52/1 51/3/1 52/47/1
f 32/32/1 52/47/1 50/30/1
f 29/51/1 49/27/1 51/3/1
f 53/53/5 61/61/5 62/54/5
f 29/51/5 57/51/5 58/31/5
f 31/52/3 59/52/3 57/51/3
f 32/32/2 60/32/2 59/52/2
f 66/55/7 58/31/7 57/51/7
f 69/57/8 59/52/8 60/32/8
f 70/58/9 60/32/9 58/31/9
f 65/56/10 57/51/10 59/52/10
f 67/56/1 71/57/1 72/58/1
f 69/57/3 71/57/3 67/56/3
f 63/59/6 75/59/6 76/60/6
f 66/55/4 68/55/4 72/58/4
f 54/54/11 66/55/11 65/56/11
f 61/61/12 67/56/12 68/55/12
f 53/53/13 65/56/13 67/56/13
f 62/54/14 68/55/14 66/55/14
f 55/59/2 69/57/2 70/58/2
f 64/60/2 72/58/2 71/57/2
f 63/59/2 71/57/2 69/57/2
f 56/62/2 70/58/2 72/58/2
f 74/62/2 76/60/2 75/59/2
f 55/59/4 73/59/4 75/59/4
f 56/62/1 74/62/1 73/59/1
f 64/60/3 76/60/3 74/62/3
