# Blender 4.4.3
# www.blender.org
mtllib Walls.mtl
o Plane
v -1.000000 0.000000 0.000000
v -7.000000 0.300000 0.000000
v -2.000000 0.300000 0.000000
v -2.000000 2.000000 0.000000
v -7.300000 10.300000 0.000000
v -7.000000 10.000000 0.000000
v -1.700000 10.300000 0.000000
v -2.000000 10.000000 0.000000
v -1.700000 10.300000 0.000000
v -2.000000 4.000000 0.000000
v -7.300000 0.000000 0.000000
v -1.700000 4.000000 0.000000
v -1.000000 0.300000 0.000000
v -1.700000 2.000000 0.000000
v -1.700000 0.300000 0.000000
v -1.000000 0.000000 3.000000
v -7.000000 0.300000 3.000000
v -2.000000 0.300000 3.000000
v -2.000000 2.000000 3.000000
v -7.300000 10.300000 3.000000
v -7.000000 10.000000 3.000000
v -1.700000 10.300000 3.000000
v -2.000000 10.000000 3.000000
v -1.700000 10.300000 3.000000
v -2.000000 4.000000 3.000000
v -7.300000 0.000000 3.000000
v -1.700000 4.000000 3.000000
v -1.000000 0.300000 3.000000
v -1.700000 2.000000 3.000000
v -1.700000 0.300000 3.000000
v 1.000000 0.000000 0.000000
v 7.000000 0.300000 0.000000
v 2.000000 0.300000 0.000000
v 2.000000 2.000000 0.000000
v 7.300000 10.300000 0.000000
v 7.000000 10.000000 0.000000
v 1.700000 10.300000 0.000000
v 2.000000 10.000000 0.000000
v 1.700000 10.300000 0.000000
v 2.000000 4.000000 0.000000
v 7.300000 0.000000 0.000000
v 1.700000 4.000000 0.000000
v 1.000000 0.300000 0.000000
v 1.700000 2.000000 0.000000
v 1.700000 0.300000 0.000000
v 1.000000 0.000000 3.000000
v 7.000000 0.300000 3.000000
v 2.000000 0.300000 3.000000
v 2.000000 2.000000 3.000000
v 7.300000 10.300000 3.000000
v 7.000000 10.000000 3.000000
v 1.700000 10.300000 3.000000
v 2.000000 10.000000 3.000000
v 1.700000 10.300000 3.000000
v 2.000000 4.000000 3.000000
v 7.300000 0.000000 3.000000
v 1.700000 4.000000 3.000000
v 1.000000 0.300000 3.000000
v 1.700000 2.000000 3.000000
v 1.700000 0.300000 3.000000
vn -0.0000 -0.0000 -1.0000
vn -0.0000 -0.0000 1.0000
vn -0.0000 1.0000 -0.0000
vn -0.0000 -1.0000 -0.0000
vn -1.0000 -0.0000 -0.0000
vn 1.0000 -0.0000 -0.0000
vt 0.000000 0.000000
s 0
f 2/1/1 5/1/1 6/1/1
f 11/1/1 5/1/1 2/1/1
f 6/1/1 5/1/1 9/1/1
f 6/1/1 9/1/1 8/1/1
f 10/1/1 9/1/1 12/1/1
f 10/1/1 8/1/1 9/1/1
f 15/1/1 1/1/1 11/1/1
f 15/1/1 3/1/1 14/1/1
f 3/1/1 4/1/1 14/1/1
f 17/1/2 21/1/2 20/1/2
f 26/1/2 17/1/2 20/1/2
f 21/1/2 24/1/2 20/1/2
f 21/1/2 23/1/2 24/1/2
f 25/1/2 27/1/2 24/1/2
f 25/1/2 24/1/2 23/1/2
f 30/1/2 29/1/2 18/1/2
f 18/1/2 29/1/2 19/1/2
f 5/1/3 24/1/3 9/1/3
f 12/1/4 25/1/4 10/1/4
f 11/1/5 20/1/5 5/1/5
f 2/1/3 18/1/3 3/1/3
f 7/1/2 24/1/2 22/1/2
f 8/1/4 21/1/4 6/1/4
f 26/1/4 1/1/4 16/1/4
f 6/1/6 17/1/6 2/1/6
f 4/1/3 29/1/3 14/1/3
f 9/1/6 27/1/6 12/1/6
f 3/1/5 19/1/5 4/1/5
f 14/1/6 30/1/6 15/1/6
f 13/1/6 16/1/6 1/1/6
f 10/1/5 23/1/5 8/1/5
f 30/1/2 18/1/2 26/1/2
f 30/1/3 13/1/3 15/1/3
f 32/1/1 36/1/1 35/1/1
f 41/1/1 32/1/1 35/1/1
f 36/1/1 39/1/1 35/1/1
f 36/1/1 38/1/1 39/1/1
f 40/1/1 42/1/1 39/1/1
f 40/1/1 39/1/1 38/1/1
f 41/1/1 43/1/1 45/1/1
f 45/1/1 44/1/1 33/1/1
f 33/1/1 44/1/1 34/1/1
f 47/1/2 50/1/2 51/1/2
f 56/1/2 50/1/2 47/1/2
f 51/1/2 50/1/2 54/1/2
f 51/1/2 54/1/2 53/1/2
f 55/1/2 54/1/2 57/1/2
f 55/1/2 53/1/2 54/1/2
f 60/1/2 48/1/2 59/1/2
f 48/1/2 49/1/2 59/1/2
f 54/1/3 35/1/3 39/1/3
f 55/1/4 42/1/4 40/1/4
f 50/1/6 41/1/6 35/1/6
f 48/1/3 32/1/3 33/1/3
f 37/1/2 54/1/2 39/1/2
f 51/1/4 38/1/4 36/1/4
f 31/1/4 56/1/4 46/1/4
f 47/1/5 36/1/5 32/1/5
f 59/1/3 34/1/3 44/1/3
f 57/1/5 39/1/5 42/1/5
f 49/1/6 33/1/6 34/1/6
f 60/1/5 44/1/5 45/1/5
f 46/1/5 43/1/5 31/1/5
f 53/1/6 40/1/6 38/1/6
f 56/1/2 48/1/2 60/1/2
f 43/1/3 60/1/3 45/1/3
f 11/1/1 2/1/1 3/1/1
f 15/1/1 13/1/1 1/1/1
f 11/1/1 3/1/1 15/1/1
f 5/1/3 20/1/3 24/1/3
f 12/1/4 27/1/4 25/1/4
f 11/1/5 26/1/5 20/1/5
f 2/1/3 17/1/3 18/1/3
f 7/1/2 9/1/2 24/1/2
f 8/1/4 23/1/4 21/1/4
f 26/1/4 11/1/4 1/1/4
f 6/1/6 21/1/6 17/1/6
f 4/1/3 19/1/3 29/1/3
f 9/1/6 24/1/6 27/1/6
f 3/1/5 18/1/5 19/1/5
f 14/1/6 29/1/6 30/1/6
f 13/1/6 28/1/6 16/1/6
f 10/1/5 25/1/5 23/1/5
f 26/1/2 16/1/2 28/1/2
f 26/1/2 28/1/2 30/1/2
f 18/1/2 17/1/2 26/1/2
f 30/1/3 28/1/3 13/1/3
f 33/1/1 32/1/1 41/1/1
f 41/1/1 31/1/1 43/1/1
f 45/1/1 33/1/1 41/1/1
f 54/1/3 50/1/3 35/1/3
f 55/1/4 57/1/4 42/1/4
f 50/1/6 56/1/6 41/1/6
f 48/1/3 47/1/3 32/1/3
f 37/1/2 52/1/2 54/1/2
f 51/1/4 53/1/4 38/1/4
f 31/1/4 41/1/4 56/1/4
f 47/1/5 51/1/5 36/1/5
f 59/1/3 49/1/3 34/1/3
f 57/1/5 54/1/5 39/1/5
f 49/1/6 48/1/6 33/1/6
f 60/1/5 59/1/5 44/1/5
f 46/1/5 58/1/5 43/1/5
f 53/1/6 55/1/6 40/1/6
f 58/1/2 46/1/2 56/1/2
f 56/1/2 47/1/2 48/1/2
f 60/1/2 58/1/2 56/1/2
f 43/1/3 58/1/3 60/1/3
